<!DOCTYPE svg PUBLIC "-//W3C//DTD SVG 1.1//EN" "http://www.w3.org/Graphics/SVG/1.1/DTD/svg11.dtd">
<!-- Uploaded to: SVG Repo, www.svgrepo.com, Transformed by: SVG Repo Mixer Tools -->
<svg height="800px" width="800px" version="1.1" id="Layer_1" xmlns="http://www.w3.org/2000/svg" xmlns:xlink="http://www.w3.org/1999/xlink" viewBox="0 0 512 512" xml:space="preserve" fill="#000000" transform="rotate(-45)">
<g id="SVGRepo_bgCarrier" stroke-width="0"/>
<g id="SVGRepo_tracerCarrier" stroke-linecap="round" stroke-linejoin="round"/>
<g id="SVGRepo_iconCarrier"> <path style="fill:#F5F5F5;" d="M42.528,130.408h426.96c23.472,0,42.512,29.76,42.512,66.464s-19.04,66.48-42.528,66.48H42.528"/> <ellipse style="fill:#B5B5B5;" cx="42.528" cy="196.872" rx="42.528" ry="66.48"/> <g> <polyline style="fill:#15447a;" points="222.816,262.376 162.512,362.488 192.112,357.592 204.608,381.608 271.152,262.376 "/> <polyline style="fill:#15447a;" points="312.704,262.376 372.992,362.488 343.392,357.592 330.912,381.608 264.368,262.376 "/> </g> <path style="fill:#15447a;" d="M278.88,263.352c23.488,0,42.528-29.76,42.528-66.48s-19.04-66.464-42.528-66.464h-45.76 c23.488,0,42.528,29.76,42.528,66.48s-19.04,66.48-42.528,66.48h45.76V263.352z"/> </g>
</svg>