<svg version="1.2" xmlns="http://www.w3.org/2000/svg" viewBox="0 0 489 93" width="489" height="137">
	<title>sololearn_logo</title>
	<style>
		.s0 { fill: #000000 } 
		.s1 { fill: #ffa30f } 
		.s2 { fill: #149ef2 } 
		.s3 { fill: #f20057 } 
		.s4 { fill: #8252de } 
	</style>
	<g>
		<g>
			<path class="s0" d="m145.8 69.7c-3.5 0-6.4-0.4-8.9-1.2-2.4-0.8-4.4-1.8-6-3-1.5-1.2-2.7-2.4-3.4-3.6-0.8-1.2-1.2-2.2-1.3-3 0-0.6 0.2-1.1 0.6-1.5 0.4-0.4 0.9-0.5 1.4-0.5h6.9q0.4 0 0.6 0c0.2 0.1 0.4 0.3 0.7 0.5q1.1 1 2.4 2c0.8 0.7 1.8 1.3 3 1.8 1.1 0.5 2.5 0.7 4.3 0.7q3.4 0 5.6-1.3 2.3-1.4 2.4-3.8 0-1.8-1-2.9c-0.7-0.8-1.9-1.5-3.7-2.1q-2.7-0.9-7.6-1.9c-3.2-0.8-5.9-1.7-8.1-2.9-2.1-1.1-3.7-2.5-4.7-4.3q-1.6-2.6-1.6-6c0-2.3 0.7-4.4 2.1-6.4 1.3-2.1 3.3-3.8 6-5q4-2 10-2 4.7 0 8.1 1.1 3.5 1.2 5.8 2.9c1.5 1.2 2.7 2.3 3.5 3.5q1.2 1.8 1.3 3.1 0 0.9-0.5 1.5c-0.4 0.4-0.9 0.6-1.4 0.6h-6.4q-0.4 0-0.8-0.2-0.3-0.2-0.7-0.4-0.9-0.9-2.1-1.8-0.3-0.3-0.6-0.5-0.3-0.2-0.7-0.5-0.3-0.2-0.7-0.4-0.3-0.1-0.7-0.3-1.6-0.7-4.2-0.7-3.3 0-5 1.4c-1.1 0.9-1.7 2.1-1.7 3.6q0 1.5 0.8 2.5c0.6 0.7 1.7 1.4 3.3 2q2.6 1 7.7 2c3.8 0.7 6.9 1.7 9.2 3.1 2.2 1.4 3.9 2.9 4.8 4.6q1.4 2.7 1.4 5.8 0 3.9-2.3 7-2.3 3.1-6.7 4.9c-3 1-6.7 1.6-11.1 1.6z"/>
			<path class="s0" d="m194.8 69.7q-6.9 0-11.7-2.4c-3.1-1.6-5.5-3.9-7.1-6.8q-2.5-4.4-2.9-10.2 0-0.5 0-1 0-0.4 0-0.9 0-0.5 0-1 0-0.4 0-0.9c0-1.5 0-2.8 0-3.8q0.4-5.9 2.9-10.2c1.8-2.9 4.1-5.2 7.3-6.8q4.7-2.4 11.4-2.4 6.8 0 11.5 2.4 4.7 2.4 7.2 6.8 2.6 4.3 2.9 10.2 0.1 0.5 0.1 1 0 0.4 0 0.9 0 0.5 0 1 0 0.4 0 0.9c0 1.5 0 2.8-0.1 3.8q-0.3 5.8-2.8 10.2c-1.6 2.9-4 5.2-7.2 6.8-3 1.7-6.9 2.4-11.5 2.4zm0-8.5c3 0 5.4-1 7.1-2.9 1.6-1.9 2.5-4.7 2.7-8.5q0.1-0.8 0.1-1.6 0-0.9 0-1.7 0-0.8 0-1.7 0-0.8-0.1-1.6c-0.1-3.7-1.1-6.5-2.7-8.5q-2.6-2.9-7.1-2.9c-3.1 0-5.4 1-7.1 2.9-1.7 2-2.6 4.8-2.8 8.5q0 0.8 0 1.6 0 0.9 0 1.7 0 0.8 0 1.7 0 0.8 0 1.6 0.3 5.7 2.8 8.5c1.7 2 4 2.9 7.1 2.9z"/>
			<path class="s0" d="m267.1 69.7q-6.9 0-11.7-2.4c-3.1-1.6-5.5-3.9-7.2-6.8q-2.4-4.4-2.8-10.2 0-0.5 0-1 0-0.4 0-0.9 0-0.5 0-1 0-0.4 0-0.9c0-1.5 0-2.8 0-3.8q0.4-5.9 2.9-10.2c1.7-2.9 4.1-5.2 7.3-6.8q4.7-2.4 11.4-2.4 6.8 0 11.5 2.4 4.7 2.4 7.2 6.8 2.6 4.3 2.9 10.2 0 0.5 0.1 1 0 0.4 0 0.9 0 0.5 0 1 0 0.4 0 0.9c0 1.5 0 2.8-0.1 3.8q-0.3 5.8-2.8 10.2c-1.6 2.9-4 5.2-7.2 6.8-3.1 1.7-6.9 2.4-11.5 2.4zm0-8.5c3 0 5.4-1 7-2.9 1.7-1.9 2.6-4.7 2.8-8.5q0-0.8 0.1-1.6 0-0.9 0-1.7 0-0.8 0-1.7-0.1-0.8-0.1-1.6c-0.2-3.7-1.1-6.5-2.8-8.5q-2.5-2.9-7-2.9c-3.1 0-5.5 1-7.1 2.9-1.7 2-2.6 4.8-2.8 8.5q0 0.8 0 1.6-0.1 0.9-0.1 1.7 0 0.8 0.1 1.7 0 0.8 0 1.6 0.3 5.7 2.8 8.5c1.6 2 4 2.9 7.1 2.9z"/>
			<path class="s0" d="m338.8 69.7q-9.6 0-15.2-5.5c-3.7-3.7-5.8-8.9-6-15.7q-0.1-0.2-0.1-0.5 0-0.3 0-0.6 0-0.2 0-0.5 0-0.3 0-0.6 0-1.3 0.1-2.1 0.3-6.4 2.9-11.2 2.7-4.7 7.3-7.2c3.2-1.8 6.8-2.6 11-2.6q7 0 11.8 2.9 4.7 2.9 7.1 8 2.5 5.2 2.5 11.9v1.7c0 0.6-0.2 1.1-0.6 1.5-0.4 0.4-1 0.6-1.6 0.6h-28.7v0.7c0.1 2 0.4 3.9 1.2 5.6 0.7 1.7 1.8 3 3.2 4.1q2.1 1.5 5 1.5 2.4 0 4.1-0.7 1.6-0.8 2.7-1.7c0.7-0.6 1.1-1.1 1.5-1.6 0.5-0.7 0.9-1 1.2-1.2q0.5-0.2 1.5-0.2h7.4q0.8 0 1.4 0.5 0.6 0.5 0.5 1.3c-0.1 0.9-0.6 2-1.5 3.3q-1.3 2-3.8 3.9-2.5 1.9-6.2 3.1c-2.6 0.9-5.5 1.3-8.7 1.3zm-9.5-27.1h19.1v-0.3q0-3.3-1.1-5.8-1.1-2.5-3.3-4-2.2-1.4-5.2-1.4-3 0-5.2 1.4-2.2 1.5-3.2 4c-0.7 1.7-1.1 3.6-1.1 5.8v0.3z"/>
			<path class="s0" d="m405.6 33.4q-0.2-0.7-0.6-1.4-0.3-0.7-0.7-1.4-0.4-0.7-0.9-1.3-0.5-0.6-1.1-1.1c-1.4-1.5-3.5-2.7-6-3.6q-3.7-1.3-9.2-1.3-5 0-8.5 1.3-3.6 1.2-5.8 3.1-2.3 1.9-3.3 3.8c-0.7 1.3-1.1 2.5-1.1 3.4q0 0.9 0.4 1.3 0.5 0.5 1.5 0.5h6.8q1.3 0 2-1.1 0.2-0.5 0.5-1 0.3-0.4 0.7-0.9 0.4-0.4 0.8-0.7 0.4-0.4 0.9-0.7 1.9-1.2 5-1.2 4.4 0 6.2 1.9 1.8 2 1.8 5.6v2.9l-15.1 1.2c-7 0.5-12.5 6.4-12.5 13.5 0 7.5 6.1 13.5 13.6 13.5h13.8c6.5 0 11.8-5.2 11.8-11.7v-18.2c0-2.3-0.3-4.4-1-6.4zm-14.7 28.1l-5.3 0.3c-3.5 0.2-6.4-2.5-6.4-6 0-3 2.2-5.5 5.2-6l10.7-1.4v8.6c0 2.3-1.8 4.3-4.2 4.5z"/>
			<path class="s0" d="m299.4 7.7h7.6q0.4 0 0.7 0.2 0.4 0.1 0.6 0.4 0.3 0.2 0.4 0.6 0.1 0.3 0.1 0.7v57.5q0 0.3-0.1 0.7-0.1 0.3-0.4 0.6-0.2 0.2-0.6 0.4-0.3 0.1-0.7 0.1h-7.6q-0.4 0-0.7-0.1-0.4-0.2-0.6-0.4-0.3-0.3-0.4-0.6-0.2-0.4-0.2-0.7v-57.5q0-0.4 0.2-0.7 0.1-0.4 0.4-0.6 0.2-0.3 0.6-0.4 0.3-0.2 0.7-0.2z"/>
			<path class="s0" d="m227.1 7.7h7.6q0.4 0 0.7 0.2 0.4 0.1 0.6 0.4 0.3 0.2 0.4 0.6 0.2 0.3 0.2 0.7v57.5q0 0.3-0.2 0.7-0.1 0.3-0.4 0.6-0.2 0.2-0.6 0.4-0.3 0.1-0.7 0.1h-7.6q-0.4 0-0.7-0.1-0.4-0.2-0.6-0.4-0.3-0.3-0.4-0.6-0.2-0.4-0.2-0.7v-57.5q0-0.4 0.2-0.7 0.1-0.4 0.4-0.6 0.2-0.3 0.6-0.4 0.3-0.2 0.7-0.2z"/>
			<path class="s0" d="m418 69.1q-0.2 0-0.4 0-0.1-0.1-0.3-0.1-0.2-0.1-0.4-0.2-0.1-0.1-0.3-0.2-0.1-0.2-0.3-0.4-0.1-0.2-0.2-0.4-0.1-0.2-0.1-0.4 0-0.2 0-0.5v-31.9c0-6.5 5.2-11.7 11.8-11.7 4 0 7.2 0 13.1-0.1 1.2 0 2.3 1 2.3 2.2v3.9q0 0.5-0.2 0.9-0.2 0.4-0.5 0.7-0.3 0.4-0.7 0.5-0.4 0.2-0.9 0.2h-8.7c-2.5 0-4.6 2-4.6 4.5v30.9q0 0.9-0.5 1.5-0.6 0.6-1.6 0.6h-7.5c0 0 0 0 0 0z"/>
			<path class="s0" d="m446.2 40.7v26.2q0 0.4 0.2 0.8 0.2 0.4 0.5 0.7 0.3 0.4 0.7 0.5 0.4 0.2 0.9 0.2h7.2q0.5 0 0.9-0.2 0.4-0.1 0.7-0.5 0.3-0.3 0.5-0.7 0.2-0.4 0.2-0.8v-26.3c0-5.3 4.2-9.5 9.5-9.5 5.3 0 9.5 4.2 9.5 9.5v26.3q0 0.4 0.2 0.8 0.2 0.4 0.5 0.7 0.3 0.4 0.7 0.5 0.5 0.2 0.9 0.2h7.2q0.5 0 0.9-0.2 0.4-0.1 0.7-0.5 0.3-0.3 0.5-0.7 0.2-0.4 0.2-0.8v-26.2c0-9.6-7.9-17.5-17.6-17.5h-7.4c-9.7 0-17.6 7.9-17.6 17.5z"/>
			<path class="s1" d="m62.6 20.9c10 0 19 4.3 25.1 11.3 2 2.3 5.9 0.7 5.6-2.4q-0.1-0.8-0.2-1.5-0.1-0.8-0.3-1.6-0.1-0.8-0.3-1.5-0.2-0.8-0.4-1.5c-3.1-11-11.9-19.6-22.9-22.5-22.3-5.8-42.3 10.8-42.3 32q0 2 0.3 4c0.4 3.1 4.5 3.9 6 1.2 1.4-2.7 3.2-5.1 5.3-7.3 2-2.1 4.4-4 7-5.5 2.6-1.6 5.3-2.8 8.2-3.6 2.9-0.7 5.9-1.1 8.9-1.1z"/>
			<path class="s2" d="m20.9 30.6q0-3.5 0.8-7 0.7-3.5 2.2-6.7 1.5-3.2 3.6-6.1 2.1-2.8 4.8-5.2c2.3-2 0.7-5.9-2.4-5.6q-3.1 0.3-6.2 1.2c-11 3.1-19.6 11.8-22.5 22.8-5.8 22.2 10.8 42.2 32.1 42.2q2.1 0 4.1-0.3c3.1-0.4 3.8-4.5 1.1-6-10.5-5.6-17.6-16.6-17.6-29.3z"/>
			<path class="s3" d="m30.7 72.1c-10 0-18.9-4.3-25-11.3-2.1-2.3-6-0.7-5.7 2.4q0.1 0.8 0.2 1.5 0.1 0.8 0.3 1.6 0.1 0.8 0.3 1.5 0.2 0.8 0.4 1.5c3.1 11 11.9 19.6 23 22.5 22.2 5.8 42.2-10.8 42.2-32q0-2.1-0.2-4.1c-0.4-3.1-4.5-3.8-6-1.1-5.7 10.5-16.7 17.5-29.5 17.5z"/>
			<path class="s4" d="m72.4 62.4q0 3.5-0.7 7-0.8 3.5-2.3 6.7-1.4 3.2-3.6 6.1-2.1 2.8-4.8 5.2c-2.3 2-0.7 5.9 2.4 5.6q3.1-0.3 6.2-1.2c11-3.1 19.6-11.9 22.5-22.9 5.8-22.2-10.8-42.1-32.1-42.1q-0.5 0-1 0-0.5 0-1.1 0.1-0.5 0-1 0-0.5 0.1-1 0.1c-3.1 0.4-3.8 4.6-1.1 6 10.5 5.7 17.6 16.7 17.6 29.4z"/>
		</g>
	</g>
</svg>